<svg xmlns="http://www.w3.org/2000/svg" width="34.69" height="34.28" viewBox="0 0 34.69 34.28"><defs><style>.a{fill:#cba052;}</style></defs><title>icon-social-instagram-gold</title><path class="a" d="M33.38,17.14q0,4.78-.1,6.62a9.8,9.8,0,0,1-2.59,6.73A9.8,9.8,0,0,1,24,33.08q-1.84.1-6.62.1t-6.62-.1A9.8,9.8,0,0,1,4,30.49a9.8,9.8,0,0,1-2.59-6.73q-.1-1.84-.1-6.62t.1-6.62A9.8,9.8,0,0,1,4,3.79,9.79,9.79,0,0,1,10.72,1.2q1.84-.1,6.62-.1T24,1.2a9.8,9.8,0,0,1,6.73,2.59,9.8,9.8,0,0,1,2.59,6.73Q33.39,12.36,33.38,17.14ZM18.94,4h-5.4l-2,.06a16.55,16.55,0,0,0-2.15.21,8.35,8.35,0,0,0-1.49.39,5.47,5.47,0,0,0-3,3,8.34,8.34,0,0,0-.39,1.49,16.51,16.51,0,0,0-.21,2.15q-.05,1.26-.06,2t0,2.2q0,1.45,0,1.6t0,1.6q0,1.45,0,2.2t.06,2a16.51,16.51,0,0,0,.21,2.15,8.34,8.34,0,0,0,.39,1.49,5.47,5.47,0,0,0,3,3A8.4,8.4,0,0,0,9.38,30a16.48,16.48,0,0,0,2.15.21l2,.06h7.6l2-.06A16.51,16.51,0,0,0,25.31,30a8.42,8.42,0,0,0,1.49-.39,5.47,5.47,0,0,0,3-3,8.34,8.34,0,0,0,.39-1.49A16.51,16.51,0,0,0,30.45,23q.05-1.26.06-2t0-2.2q0-1.45,0-1.6t0-1.6q0-1.45,0-2.2t-.06-2a16.51,16.51,0,0,0-.21-2.15,8.34,8.34,0,0,0-.39-1.49,5.47,5.47,0,0,0-3-3,8.38,8.38,0,0,0-1.49-.39A16.59,16.59,0,0,0,23.16,4l-2-.06Zm4.23,7.34a7.94,7.94,0,0,1,2.4,5.83,8.2,8.2,0,0,1-8.23,8.23,8.2,8.2,0,0,1-8.23-8.23,8.2,8.2,0,0,1,8.23-8.23A7.94,7.94,0,0,1,23.17,11.31Zm-2,9.61a5.35,5.35,0,0,0,0-7.56,5.35,5.35,0,0,0-7.56,0,5.35,5.35,0,0,0,0,7.56,5.35,5.35,0,0,0,7.56,0Zm6.14-13.7a1.92,1.92,0,0,1,0,2.72A1.92,1.92,0,0,1,24,8.58a1.92,1.92,0,0,1,3.28-1.36Z"/></svg>