<svg xmlns="http://www.w3.org/2000/svg" width="39.7" height="39.7" viewBox="0 0 39.7 39.7"><defs><style>.a{fill:#cba052;}</style></defs><title>icon-social-flickr-gold</title><path class="a" d="M32.26,0a7.17,7.17,0,0,1,5.26,2.18A7.17,7.17,0,0,1,39.7,7.44V32.26a7.46,7.46,0,0,1-7.44,7.44H7.44a7.17,7.17,0,0,1-5.26-2.18A7.17,7.17,0,0,1,0,32.26V7.44A7.17,7.17,0,0,1,2.18,2.18,7.17,7.17,0,0,1,7.44,0ZM16.44,23.73a5.49,5.49,0,0,0,0-7.75,5.28,5.28,0,0,0-3.88-1.6,5.47,5.47,0,0,0-5.48,5.48,5.47,5.47,0,0,0,5.48,5.48A5.28,5.28,0,0,0,16.44,23.73Zm14.58,0A5.49,5.49,0,0,0,31,16a5.49,5.49,0,0,0-7.75,0,5.49,5.49,0,0,0,0,7.75,5.49,5.49,0,0,0,7.75,0Z"/></svg>