<svg xmlns="http://www.w3.org/2000/svg" width="39.69" height="47.99" viewBox="0 0 39.69 47.99"><defs><style>.a{fill:#cba052;}</style></defs><title>icon-social-youtubegold</title><path class="a" d="M38.75,43.3a4.94,4.94,0,0,1-4.23,3.83,129.28,129.28,0,0,1-14.67.56,129.3,129.3,0,0,1-14.68-.56A4.91,4.91,0,0,1,.94,43.3,41.6,41.6,0,0,1,.25,34a43.12,43.12,0,0,1,.69-9.25,5,5,0,0,1,4.26-3.86,135,135,0,0,1,14.65-.53,135.75,135.75,0,0,1,14.67.53,5,5,0,0,1,4.23,3.86A41.54,41.54,0,0,1,39.44,34a43.31,43.31,0,0,1-.69,9.25M11.44,27.46V25H3.19v2.49H6v15H8.61v-15ZM15.75.3l-3.2,10.55V18H9.9V10.85A42,42,0,0,0,8.29,5.25C7.71,3.61,7.13,1.94,6.57.3h2.8l1.88,7L13,.3Zm2.83,42.2V29.44H16.22v10q-.79,1.11-1.51,1.11-.48,0-.55-.55a6.28,6.28,0,0,1,0-.93V29.44H11.78V39.78A6.42,6.42,0,0,0,12,41.71a1.45,1.45,0,0,0,1.53,1,3.84,3.84,0,0,0,2.7-1.61V42.5Zm4.26-28.77a5.22,5.22,0,0,1-.74,3.12,3.26,3.26,0,0,1-2.8,1.35,3.25,3.25,0,0,1-2.78-1.35,5.27,5.27,0,0,1-.74-3.12V9.11A5.13,5.13,0,0,1,16.51,6a3.25,3.25,0,0,1,2.78-1.35A3.26,3.26,0,0,1,22.09,6a5.13,5.13,0,0,1,.74,3.09Zm-2.41-5.1c0-1.22-.34-1.82-1.14-1.82s-1.14.61-1.14,1.82v5.55c0,1.22.37,1.85,1.14,1.85s1.14-.63,1.14-1.85Zm7.14,24.75a9,9,0,0,0-.24-2.62,1.86,1.86,0,0,0-1.88-1.48A3.21,3.21,0,0,0,23,30.71V25H20.64V42.5H23V41.23a3.26,3.26,0,0,0,2.46,1.45,1.86,1.86,0,0,0,1.88-1.45,9.35,9.35,0,0,0,.24-2.64Zm-2.35,5.39c0,1.19-.34,1.77-1,1.77A1.69,1.69,0,0,1,23,40V32a1.69,1.69,0,0,1,1.19-.58c.69,0,1,.61,1,1.77ZM31.69,18H29.28V16.56a3.79,3.79,0,0,1-2.72,1.64,1.5,1.5,0,0,1-1.56-1,6.72,6.72,0,0,1-.21-2V4.82H27.2v9.7a6,6,0,0,0,0,.93c.05.37.24.58.55.58.48,0,1-.37,1.51-1.14V4.82h2.41ZM36.5,38H34.1A14.36,14.36,0,0,1,34,39.59a1,1,0,0,1-1.06,1c-.82,0-1.22-.61-1.22-1.82v-2.3H36.5V33.7a5.24,5.24,0,0,0-.71-3.07,3.61,3.61,0,0,0-5.63,0,5,5,0,0,0-.74,3.07v4.57a5,5,0,0,0,.77,3.07A3.36,3.36,0,0,0,33,42.69a3.27,3.27,0,0,0,2.86-1.4,3.06,3.06,0,0,0,.55-1.43,10.24,10.24,0,0,0,.05-1.53Zm-2.35-3.54H31.77V33.22c0-1.19.4-1.8,1.19-1.8s1.19.61,1.19,1.8Z"/></svg>